<svg xmlns="http://www.w3.org/2000/svg" xml:space="preserve" viewBox="0 0 211.346 211.346"><path d="M189.229 119.315c-22.893 12.354-25.097-10.119-25.097-10.119-18.938-2.199-33.018-23.345-33.018-23.345-25.559 13.225-11.325 50.463-.302 64.767 1.059 1.359 1.921 2.784 2.713 4.244h24.128v25.215h24.051v31.269H16.269v-31.269h24.048v-25.215h5.58c-20.227-27.023-14.732-52.422-8.588-69.333 7.578-20.851 17.83-32.285 32.781-44.449 22.195-18.099 63.218-20.38 63.218-20.38.272-1.537 1.413-3.322 3.032-5.175a189.1 189.1 0 0 0-17.738 1.439c-4.687.886-9.862 1.407-15.119 2.967-5.358 1.144-10.805 3.002-16.373 5.157-5.574 2.057-11.035 5-16.441 8.086-5.125 3.546-10.571 6.877-14.877 11.562-4.95 4.043-8.55 9.276-12.256 14.301-3.854 4.915-5.754 10.914-8.63 16.113-2.154 5.521-3.36 11.209-4.977 16.408-1.457 5.249-1.434 10.521-2.161 15.214-.618 4.74-1.102 9.091-.756 12.992.121 3.877.225 7.258.304 10.036.157 5.58.254 8.76.254 8.76l-.757.083s-.674-3.121-1.551-8.736c-.411-2.837-.908-6.254-1.487-10.179-.83-3.948-.866-8.452-.502-13.382.399-4.924.024-10.37 1.15-16.006 1.282-5.58 2.092-11.73 4.356-17.65 2.899-5.677 4.85-12.141 8.86-17.582 3.857-5.568 7.669-11.372 12.942-15.876 4.85-4.986 10.799-8.45 16.414-12.129 5.866-3.154 11.78-6.121 17.711-8.166a84.334 84.334 0 0 1 17.449-4.472c5.574-1.218 10.961-1.386 15.85-1.962 8.311-.388 15.268 0 20.664.582C145.466 6.585 156.2 0 156.2 0c-2.205 2.185-3.085 14.092-3.085 14.092 2.198-3.96 9.244-7.936 9.244-7.936-3.96 9.224 0 29.046 0 29.046 11.455 11.47 24.21 51.083 24.21 51.083l4.848 7.045c6.183 8.844 3.912 22.698-2.188 25.985z"/></svg>